<svg xmlns="http://www.w3.org/2000/svg" xmlns:xlink="http://www.w3.org/1999/xlink" version="1.1" id="ViktoryKinesio_x5F_logo" x="0px" y="0px" style="enable-background:new 0 0 1920 1080;" xml:space="preserve" viewBox="659.84 299.3 600.16 481.37">
<style type="text/css">
	.st0{opacity:0.55;fill:#BF89C3;}
	.st1{opacity:0.55;fill:#FFD8F9;}
	.st2{opacity:0.55;fill:#C2D4C4;}
	.st3{opacity:0.7;fill:#FFD8F9;}
	.st4{opacity:0.3;fill:#C2D4C4;}
	.st5{opacity:0.3;fill:#BF89C3;}
	.st6{fill:#36153A;}
</style>
<g id="ViktoryKinesio_x5F_logo_00000134210121464462224010000017514911404851556282_">
	<g id="art">
		<path class="st0" d="M1128.6,299.3c8.7,153.4-84.9,244.3-181.3,214.3l0,0C904.3,325.9,1106.6,336.8,1128.6,299.3z"/>
		<path class="st1" d="M1209.4,359.5c-32.2,107.2-129.5,209.2-262,154.9c0,0,0,0,0,0C974.3,331.3,1143.4,358,1209.4,359.5z"/>
		<path class="st2" d="M1244.2,451.6c-56.1,9.2-148.5,181.7-296.9,62.8l0,0l0,0C1008.2,429.4,1104.2,377.4,1244.2,451.6z"/>
		<g>
			<path class="st3" d="M888.9,410.3c50.3,37.8,32.5,111.4,20.6,140.1c53.7-4.9,159.4,13.1,160.9,94.1     c-27.1-57.8-133.5-77.7-229.6-36.4C900.6,523,911.4,446.1,888.9,410.3z"/>
			<path class="st4" d="M855.9,571.5c-3.1-11.2,6-64.5-1.9-98.3h0C882.4,491.3,877.4,556.2,855.9,571.5z"/>
			<path class="st4" d="M969.6,618.8c-19.9-13-74.1-17.3-103.6-14.9C904.3,590.9,942.9,582.4,969.6,618.8z"/>
			<path class="st5" d="M840.5,608.3c42.6-44.3,75.7-72.4,99.5-84.7c1.8-1,1.1-10.6-11.9-4.8C915,524.8,875.4,556,840.5,608.3z"/>
		</g>
		<circle class="st1" cx="1234.2" cy="410.4" r="10.1"/>
		<circle class="st1" cx="1228.5" cy="375.8" r="5.7"/>
		<circle class="st2" cx="1209.4" cy="336" r="3.1"/>
		<circle class="st1" cx="1255.8" cy="326.2" r="4.2"/>
		<circle class="st2" cx="1251.5" cy="352.6" r="4.7"/>
		<circle class="st1" cx="1234.2" cy="339.7" r="3.7"/>
		<circle class="st1" cx="1254.5" cy="379.9" r="2.9"/>
		<circle class="st1" cx="1224.1" cy="316.2" r="5.8"/>
		<circle class="st1" cx="1174.8" cy="320.5" r="10.1"/>
	</g>
	<g id="name">
		<path class="st6" d="M788.8,451.2c-6.6,2-4.4,1.3-14.1,5.3c-70.4,155.9-107.5,163.3-108.2,163c-2.1-2.8,30-85.4,18.6-114.6    c-1.2-2.9-0.7-0.6-0.8,5.1c0.6,31-25.9,102.7-24.4,106.9c1.5,4.2,3.5,6.6,6,7.2c3,0.4,6.5-0.7,10.5-3.1c4-2.5,7.8-5.3,11.4-8.6    c3.6-3.3,6.5-6,8.5-8.2c28.1-32.1,51.4-67.4,69.9-105.9C770,490.5,784.7,460.2,788.8,451.2z"/>
		<path class="st6" d="M754.4,555.2c-1.3,1.2-1.9,2.7-1.8,4.3c0.1,1.7,1.2,2.6,3.4,2.9c1.1-0.1,2.1-0.6,2.9-1.5    c0.8-0.9,1.3-2,1.4-3.1c0.1-1.2-0.4-2.1-1.4-2.9C757.2,553.9,755.6,554,754.4,555.2z"/>
		<path class="st6" d="M914.6,601.6c0.1,0.4,0.2,0.9,0.2,1.4c0,0.5,0.1,1,0.2,1.5c0.1,0.5,0.5,0.9,0.9,1.1c0.5,0.2,1,0.2,1.5,0    c0.4-0.2,0.8-0.6,0.9-1.1c3.1-7.2,6.8-14.1,11.1-20.8c4.3-6.7,9.5-12.6,15.4-17.7c-0.1,2,0.3,3.9,1.1,5.5c0.8,1.7,2.1,3,4,3.9    c0.7,0.3,1.7,0.5,2.9,0.5c1.2,0.1,2.4,0,3.5-0.3c1.1-0.3,1.8-0.8,2-1.5c-0.1-0.5-0.4-0.8-0.9-0.8c-0.6-0.1-1.2-0.1-2,0    c-0.7,0-1.4,0-2-0.1c-0.6-0.1-1.1-0.2-1.5-0.5c-1.9-1.6-2.5-3.7-1.8-6.4c0.8-2.7,1.8-4.9,3-6.8c0.8-1.1,0.9-2.1,0.5-3.1    c-0.4-1-1.2-1.7-2.2-2.1c-1-0.4-2.1-0.3-3.1,0.4c-9.8,7.3-17.6,16.3-23.5,27c0.9-3.2,2.2-6.3,3.7-9.4c0.6-1.3,0.5-2.4-0.3-3.4    c-0.8-0.9-1.7-1.5-2.9-1.6c-1.2-0.1-2.2,0.4-3,1.6c-0.2,0.3-0.4,0.7-0.5,1c-7.1,6.9-22.3,4.2-27.8,0c-0.5-3.4-1.8-6.3-3.8-8.6    c-0.8-0.4-1.5-0.4-2,0.2c-1-1.1-2.3-1.4-4-0.7c-3.5,1.8-6.5,4.2-8.9,7.4c-4.7,6.4-6.6,13.5-5.8,21.3c0.8,4.2,2.7,6.9,5.7,8.1    c3,1.1,6.2,0.4,9.7-2.1c3-2.2,5.4-5.4,7-9.6c1.7-4.3,2.5-8.6,2.3-13.1c6.2,3.4,20.5,4.3,26.2-0.2    C915.9,581.6,913.9,591.3,914.6,601.6z M890.3,567.7c-0.5-0.8-0.8-1.6-0.8-2.6C889.9,565.9,890.2,566.8,890.3,567.7z M888.3,585.7    c-2.2,4.5-5.6,7.3-10.1,8.4c-1.7-0.5-2.6-1.7-2.8-3.5c-0.2-1.8-0.2-3.6,0-5.3c0.1-0.2,0.1-0.5,0.1-0.7c0.6-3.6,1.9-7,3.9-10    c2-3.1,4.6-5.5,7.9-7.2c0.7,1.7,2,3.1,3.8,4.1C891.4,576.4,890.5,581.2,888.3,585.7z"/>
		<path class="st6" d="M996.9,561.1c-0.2-4-1.9-4.8-5.2-2.7c-0.7,0.5-1.1,1.1-1.2,2c-0.3,1.6-1,3.2-2,4.8c-1,1.6-2.1,3.2-3.3,4.7    c-1.1,1.4-2,2.7-2.8,3.9c-1.8,2.6-3.9,5.3-6.2,8.2c-2.3,2.9-4.3,5.3-6.1,7.3c-0.8-1.4-0.9-3.4-0.4-6.1c0.5-2.6,1.3-5.2,2.5-7.7    c1.2-2.5,2.4-4.2,3.7-5.2c1.8-1.7,2.4-3.1,1.9-4.4c-0.5-1.3-1.5-2-3.1-2.1c-1.6-0.1-3.1,0.8-4.4,2.8c-1.8,2.2-3.3,5.6-4.7,10.1    c-1.4,4.5-1.8,8.6-1.3,12.3c0.5,3.7,2.8,5.5,6.7,5.4c1.4-0.7,2.6-1.8,3.5-3.2c0.4-0.4,0.7-0.7,1-1.2c4.8-6.2,9.4-12.5,13.8-18.9    c-2.8,15-4.3,21.8-9.2,32.7c-4.2,1.8-7.8,4.3-10.8,7.6c-3.6,4-6.5,8.5-8.6,13.5c-2.1,5-2.7,9.9-1.7,14.9c0.1,0.8,0.4,1.6,0.9,2.5    c0.5,0.9,1.1,1.5,1.9,1.8c0.8,0.3,1.7-0.1,2.7-1.2c8.2-12.5,15.1-25.5,20.7-39c1.1-0.2,2.2-0.2,3.3-0.2c0.2,0,0.4-0.1,0.6-0.2    c0.2-0.1,0.3-0.3,0.3-0.5c0-0.2,0-0.4-0.2-0.5c-0.1-0.1-0.3-0.2-0.5-0.2c-0.9,0-1.9,0.1-2.8,0.2c0.9-2.2,7.8-19,9.3-25.6    C996.4,570.3,997,565,996.9,561.1z M961.4,638.4c-0.5-1.1-0.7-2.4-0.6-3.9c0.1-1.5,0.2-2.9,0.4-4.1c0-0.2,0.1-0.4,0.1-0.6    c0.9-4.2,2.5-8.3,4.9-12.1c3.1-5.2,7.4-9.2,12.9-12.1C973.6,617.8,967.7,628.7,961.4,638.4z"/>
		<path class="st6" d="M821.5,707.7c-12.5-16.5-29.2-28.1-50-34.8c25.9-33.3,27.3-31.3,43.2-49.4c-6.1-0.8-7.4-0.4-10.8-0.6    c-14.3,17.4-12.1,15.5-29.8,38.2c5.1-22.4,11.2-44.5,18.2-66.3c0.2-0.8,0.5-1.5,0.8-2.3c4.8,1.8,9.7,3.2,14.8,4.1    c5.7,1,11.4,1.1,17.4,0.4c5.1-0.7,10.1-2,14.9-4.1c-2.5,7.9-4.9,15.8-7.1,23.8c-0.2,1.1,0,1.9,0.8,2.5c0.8,0.6,1.7,0.6,2.7,0.1    c2.4-2.2,4.2-4.7,5.6-7.6c1.4-2.9,2.6-5.8,3.6-8.8c0.5-1.2,0.9-2.5,1.3-3.7c2.2-6.5,3.6-13.7,4.3-21.8c0.6-1.5,1.2-3,1.7-4.5    c3.7-9.4,7.1-18.9,10.4-28.4c8.4-0.7,131-7.6,161-8.7c-6.4-1.6-19-0.5-32-0.3c-21.5,0.3-54.3,1.7-121.8,5.5    c-3.3,0.2-5.5,0.3-6.1,0.4c2.6-8,4.8-16,6.6-24.1c-2.6-0.4-5.6,0.6-7.7,1.5c-1.1,6.8-2.2,11.9-4.5,18.6c-0.4,1.4-0.9,2.8-1.3,4.2    c0,0.1,0,0.2-0.1,0.4c-0.1,0.1-0.1,0.2-0.1,0.3c-1.8,0.2-20.5,1.3-27.2,2.9c-0.2,0.1,0.8,2.2,1.4,2.3c0.7,0.1,18.6,5.3,17.4,19.8    c-2.7,7.3-5.2,14.6-7.6,22c-4.8,2.2-9.8,3.7-15,4.5c-10.5,1.5-20.9,0.3-30.9-3.5c5.4-3.2,10.6-6.6,15.7-10.2    c5.1-3.6,9.8-7.7,14.1-12.3c0.8-1,1-2,0.7-3c-0.3-1-0.9-1.7-1.9-2.2c-1-0.5-2-0.4-3.2,0.2c-1,0.5-2.1,1.1-3.2,1.7    c-2.8,1.4-5.7,3-8.7,4.7c-2.7,1.6-8,5.5-10.2,7.3c5.9-15.3,16.9-38.7,24.8-53.1c-5.8,1-8.4,3-12.1,4.1    c-7.6,14.9-14.2,30.1-19.9,45.8c-3.5,3-7.3,5.8-11.3,8.3c-5.9,3.6-12,6.7-18.3,9.3c-0.7,0.2-1.5,0.4-2.5,0.8    c-1.9,0.8-4,1.4-6.2,1.9c-2.2,0.4-4.4,0.4-5.1-1.2c-1.5-3-0.1-6.7,1.2-10.1c1.3-3.4,5-9.7,7-12.5c-2.8-0.1-6-0.9-7.7-1.2    c-3.4,4.8-5.5,10.1-6.1,15.9c-0.6,3.7-0.2,6.9,1.4,9.6c1.6,2.7,4.5,3.4,8.7,2.1c5.1-1.4,10-3.2,14.7-5.6c4.7-2.4,9.2-5,13.6-7.7    c0.4-0.2,1.3-0.8,2.9-1.8c1.6-1,3.4-2.3,5.4-3.7c0.4-0.3,0.8-0.6,1.2-0.9c-2.5,7.1-4.8,14.2-6.8,21.4c-7,24.3-12.8,48.8-17.6,73.6    c-12.5-3.1-25.3-4.2-38.2-3.4c-1.5,0.1,24.4,1.3,37.4,7.7c-2.5,13.4-4.9,26.8-7,40.2c-0.1,0.7,0.5,8.4,0.6,7.8    c2.6-13.3,8.8-33.6,11.6-46.8c18.8,5.7,34,16.1,45.5,31.2c11.5,15.1,21.9,40,20.9,71.2c0.2,1.9,7.5,1.6,7.6-0.4    c-0.1-4.8-0.4-9.6-0.9-14.3C841.4,743.2,834,724.2,821.5,707.7z M846.3,553.6c-2-2.6-5.3-5.2-8.7-6.4c6-1.1,12.7-1.3,18.7-2    c-1.9,5.8-3.9,11.7-5.9,17.5C849.7,559.2,848.3,556.2,846.3,553.6z M845.8,597.3c-1.4,4.6-3.2,8.6-5.5,12.1    c2.6-8.4,5.5-16.8,8.6-25.1C848.2,588.4,847.2,592.7,845.8,597.3z M808.1,576.7c-2.8,2.5-5.7,4.8-8.7,7c-1.5,1.1-3,2.2-4.5,3.3    c0,0,0-0.1,0-0.1C798.9,583,803.3,579.5,808.1,576.7z"/>
		<path class="st6" d="M823.4,638.9c-1.3,1.2-1.9,2.7-1.8,4.3c0.1,1.7,1.2,2.6,3.4,2.9c1.1-0.1,2.1-0.6,2.9-1.5    c0.8-0.9,1.3-2,1.4-3.1c0.1-1.2-0.4-2.1-1.4-2.9C826.2,637.6,824.7,637.7,823.4,638.9z"/>
		<path class="st6" d="M1043.5,645.5c1.1-0.1,2.1-0.6,2.9-1.5c0.8-0.9,1.3-2,1.4-3.1c0.1-1.2-0.4-2.1-1.4-2.9    c-1.8-1.1-3.3-1-4.6,0.3c-1.3,1.2-1.9,2.7-1.8,4.3C1040.1,644.2,1041.3,645.2,1043.5,645.5z"/>
		<path class="st6" d="M1132.9,649.8c0.3-0.2,0.4-0.5-0.5-0.1c-7.2,3.3-27.4,7.5-41.5,1.1c-0.5-3.4-1.8-6.3-3.8-8.6    c-0.8-0.4-1.5-0.4-2,0.2c-1-1.1-2.3-1.4-4-0.7c-3.5,1.8-6.5,4.2-8.9,7.3c-1.6,2.2-2.9,4.5-3.9,6.9c-2.9,2.3-14.1,15.5-26.7,18.3    c-2.2,0.5-4.4,0.4-5.1-1.2c-1.6-3-0.1-6.7,1.2-10.1c1.3-3.4,4.4-9.8,6.3-12.6c-2.4-0.7-5.9-1.2-7-1.1c-1.1,1.5-2.1,3.2-2.9,4.8    c-5.2,3.1-10.5,6-15.9,8.7c-3.1,1.6-6.2,3.2-9.3,4.9c-0.9,0.5-1.8,0.9-2.7,1.4c-2.1,1.2-4.2,2.3-6.4,3.5c-0.5-2.5-1.4-5.1-2.7-7.6    c-0.9-1.8-1.6-3.6-2.2-5.4c-0.9-3.1-1-6.2-0.2-9.3c0.8-3.1,2.8-5.4,5.8-7c1.5-1.7,1.5-2.8,0-3.3c-1.4-0.5-3.4-0.2-5.8,0.8    c-2.4,1-4.5,3.1-6.2,6.1c-1,1.8-1.6,4.1-1.7,6.8c-1.7,1.6-3.4,3.1-5.3,4.4c-1.8,1.4-5,3.4-9.7,6s-9.7,5.1-15.1,7.3    c-5.4,2.2-10.1,3.4-14.2,3.5c-4,0.1-6.3-1.7-6.8-5.5c-0.3-2.6-0.1-5.8,0.6-9.5c1.5-0.7,3.3-1.8,5.4-3.5c2.1-1.7,3.9-3.6,5.3-5.6    c1.4-2,1.9-3.9,1.5-5.6c-0.7-3.4-2.3-5-5-4.8c-2.7,0.2-4.9,1.5-6.8,3.7c-2.5,3.3-4.3,6.9-5.5,10.9c-2.4,1.9-5,3.6-7.8,5.1    c-0.5,0.3-0.9,0.6-1.3,0.8c-2.7,1.5-5.8,3.1-9.3,4.6c-3.6,1.5-7.1,2.4-10.6,2.7c-3.5,0.2-10.6,2-10.2-9c0.1-2,2.7-9.5,3-11.3    c0.3-1.8,0.2-3.5-0.5-5.1c-0.4-0.9-0.9-1.6-1.5-2c-0.6-0.4-1.3-0.3-2,0.3c-5.6,4.8-11,10-16.2,15.4c-3.8,4-7.8,7.8-11.8,11.5    c0.3-0.9,0.6-1.9,1-2.9c1.4-4.2,2.5-8.5,3.5-12.7c0.3-1.5-0.1-2.7-1.1-3.4c-1-0.7-2.1-1-3.4-0.7c-1.2,0.3-2.1,1.1-2.5,2.6    c-0.3,1.3-0.6,2.5-1,3.8c-3.4,2.9-7,5.5-10.8,7.8c-5.9,3.6-12,6.7-18.3,9.3c-0.7,0.2-1.5,0.4-2.5,0.8c-1.9,0.8-4,1.4-6.2,1.9    c-2.2,0.4-4.4,0.4-5.1-1.2c-1.6-3-0.1-6.7,1.2-10.1c1.3-3.4,4.2-8.4,6.1-11.2c-2.8-1.8-5.7-2.4-6.8-2.5    c-3.4,4.8-5.5,10.1-6.1,15.9c-0.6,3.7-0.2,6.9,1.4,9.6s4.5,3.4,8.7,2.1c5.1-1.4,10-3.2,14.7-5.6c4.7-2.4,9.2-5,13.6-7.7    c0.4-0.2,1.3-0.8,2.9-1.8c1.6-1,3.4-2.3,5.4-3.7c0.3-0.2,0.7-0.5,1-0.7c-0.5,1.8-1.1,3.6-1.6,5.5c-1.6,4.7-2.9,9.5-4,14.3    c-0.2,1.2,0,2.2,0.7,3c0.7,0.8,1.6,1.2,2.7,1.3c1.1,0.1,2-0.4,2.7-1.2c3-5.7,7-11.2,12.2-16.7c5.2-5.5,10.5-10.3,16.2-14.6    c-0.5,3.3-0.1,6.7,0,10.2c0.7,14.1,12.2,12,18,10.5c5.8-1.4,11.5-3.9,17.2-7.4c2.8-1.8,5.4-3.4,7.7-5c-0.1,0.4-0.2,0.8-0.3,1.2    c-1.1,5.4-0.7,10.6,1.3,15.5c2.1,3.4,5.7,4.8,10.8,4.2c5.1-0.6,10.8-2.3,17-5.1c6.2-2.8,11.9-5.9,17.1-9.2c4.6-2.9,8-5.3,10.3-7.2    c0.1,0.9,0.2,1.8,0.3,2.8c0.8,3.5,2.1,6.8,4.1,9.7c0.7,1.1,1.3,2.2,1.9,3.3c0.4,1.4,0.4,2.7,0,4c-2.9,1.7-5.8,3.5-8.6,5.3    c-0.6,0.5-1.2,0.9-1.9,1.3c-2.4,1.4-4.3,3.2-5.7,5.5c0.2,0.9,0.8,1.4,1.7,1.5c0.9,0.1,1.8,0,2.7-0.1c0.5-0.1,0.9-0.2,1.2-0.2    c3-0.6,5.8-1.6,8.4-3c2.7-1.4,4.9-3.4,6.6-5.8c1.2-1.9,1.9-3.7,2.1-5.3c4.9-2.7,9.8-5.4,14.7-8c4-2.1,7.9-4.3,11.9-6.4    c0.7-0.5,2.2-1.4,4.5-2.7c0.6-0.3,1.2-0.7,1.8-1c-0.9,2.5-1.5,5.1-1.8,7.8c-0.6,3.7-0.2,6.9,1.4,9.6c1.6,2.7,4.5,3.3,8.7,2.1    c13.5-3.8,24.8-17.1,26.4-18.2c-1.1,3.7-1.4,7.6-0.9,11.7c0.8,4.2,2.7,6.9,5.7,8.1c3,1.1,6.2,0.4,9.7-2.1c3-2.2,5.4-5.4,7-9.6    c1.7-4.2,2.5-8.6,2.3-13.1c2.8,0.9,5.8,1.3,8.9,1.7C1119.5,657.3,1131.5,650.8,1132.9,649.8z M943.2,646.9    c0.1,1.3-0.4,2.8-1.7,4.5c-1.2,1.7-2.6,3.2-4.1,4.6C938.6,651.7,940.5,648.7,943.2,646.9z M982.8,685.7c2.4-1.8,5-3.5,7.6-5    C988.2,682.9,985.7,684.5,982.8,685.7z M1087.3,648.4c-0.5-0.8-0.8-1.6-0.8-2.6C1086.8,646.6,1087.1,647.5,1087.3,648.4z     M1085.3,666.4c-2.2,4.5-5.6,7.3-10.1,8.4c-1.7-0.5-2.6-1.7-2.8-3.5c-0.2-1.8-0.2-3.6,0-5.3c0.1-0.2,0.1-0.5,0.1-0.7    c0.6-3.6,1.9-7,3.9-10c2-3.1,4.6-5.5,7.9-7.2c0.7,1.7,2,3.1,3.8,4.1C1088.4,657.1,1087.5,661.9,1085.3,666.4z"/>
		<path class="st6" d="M1111.1,700.2c-48.5,2.2-217.4,14.8-261.7,16.9c-2,0.1,5.3,4.1,5.5,4.1c31.2-1.5,63.7-3.8,94.9-6.5    c53.4-4.9,119.6-9.8,160.4-13.9C1115.4,700.3,1111.7,700.2,1111.1,700.2z"/>
	</g>
</g>
</svg>